<svg xmlns="http://www.w3.org/2000/svg" width="256.8" height="35" viewBox="0 0 256.8 35">
    <rect class="svg__rect" fill="#31C4F3" x="0" y="0" width="110.66" height="35"/>
    <rect class="svg__rect" fill="#389AD5" x="108.66" y="0" width="148.14000000000001" height="35"/>
    <path class="svg__text" fill="#FFFFFF" d="M17.33 22L14.22 22L14.22 13.47L17.14 13.47Q18.59 13.47 19.34 14.05Q20.10 14.63 20.10 15.78L20.10 15.78Q20.10 16.36 19.78 16.83Q19.47 17.30 18.86 17.56L18.86 17.56Q19.55 17.75 19.93 18.26Q20.31 18.78 20.31 19.51L20.31 19.51Q20.31 20.71 19.53 21.36Q18.76 22 17.33 22L17.33 22ZM15.70 18.15L15.70 20.82L17.35 20.82Q18.04 20.82 18.44 20.47Q18.83 20.13 18.83 19.51L18.83 19.51Q18.83 18.18 17.47 18.15L17.47 18.15L15.70 18.15ZM15.70 14.66L15.70 17.06L17.15 17.06Q17.84 17.06 18.23 16.75Q18.62 16.43 18.62 15.86L18.62 15.86Q18.62 15.23 18.26 14.95Q17.90 14.66 17.14 14.66L17.14 14.66L15.70 14.66ZM30.35 22L24.78 22L24.78 13.47L30.31 13.47L30.31 14.66L26.26 14.66L26.26 17.02L29.76 17.02L29.76 18.19L26.26 18.19L26.26 20.82L30.35 20.82L30.35 22ZM40.39 19.16L40.39 19.16L40.39 13.47L41.87 13.47L41.87 19.18Q41.87 20.03 42.30 20.48Q42.73 20.93 43.58 20.93L43.58 20.93Q45.29 20.93 45.29 19.13L45.29 19.13L45.29 13.47L46.77 13.47L46.77 19.17Q46.77 20.53 45.90 21.32Q45.03 22.12 43.58 22.12L43.58 22.12Q42.11 22.12 41.25 21.33Q40.39 20.55 40.39 19.16ZM52.82 22L51.34 22L51.34 13.47L52.82 13.47L56.63 19.54L56.63 13.47L58.10 13.47L58.10 22L56.62 22L52.82 15.95L52.82 22ZM64.41 22L62.93 22L62.93 13.47L64.41 13.47L64.41 22ZM68.91 18.00L68.91 18.00L68.91 17.52Q68.91 16.28 69.36 15.32Q69.80 14.37 70.60 13.86Q71.41 13.35 72.45 13.35L72.45 13.35Q73.50 13.35 74.31 13.85Q75.11 14.35 75.55 15.29Q75.99 16.23 76.00 17.48L76.00 17.48L76.00 17.96Q76.00 19.17 75.61 20.06Q75.23 20.95 74.54 21.47L74.54 21.47L76.00 22.61L75.04 23.48L73.23 22.04Q72.87 22.12 72.46 22.12L72.46 22.12Q71.43 22.12 70.62 21.61Q69.81 21.10 69.36 20.17Q68.92 19.23 68.91 18.00ZM70.40 17.46L70.40 17.96Q70.40 19.34 70.94 20.12Q71.48 20.90 72.46 20.90L72.46 20.90Q73.45 20.90 73.98 20.15Q74.51 19.40 74.51 17.96L74.51 17.96L74.51 17.51Q74.51 16.07 73.97 15.33Q73.43 14.58 72.45 14.58L72.45 14.58Q71.49 14.58 70.95 15.33Q70.41 16.09 70.40 17.46L70.40 17.46ZM80.36 19.16L80.36 19.16L80.36 13.47L81.83 13.47L81.83 19.18Q81.83 20.03 82.27 20.48Q82.70 20.93 83.55 20.93L83.55 20.93Q85.26 20.93 85.26 19.13L85.26 19.13L85.26 13.47L86.73 13.47L86.73 19.17Q86.73 20.53 85.86 21.32Q84.99 22.12 83.55 22.12L83.55 22.12Q82.08 22.12 81.22 21.33Q80.36 20.55 80.36 19.16ZM96.88 22L91.30 22L91.30 13.47L96.84 13.47L96.84 14.66L92.79 14.66L92.79 17.02L96.29 17.02L96.29 18.19L92.79 18.19L92.79 20.82L96.88 20.82L96.88 22Z"/>
    <path class="svg__text" fill="#FFFFFF" x="121.66" d="M127.39 22L122.85 22L122.85 13.60L127.15 13.60Q128.75 13.60 129.59 14.19Q130.44 14.79 130.44 15.79L130.44 15.79Q130.44 16.39 130.14 16.87Q129.84 17.34 129.30 17.62L129.30 17.62Q130.03 17.87 130.43 18.41Q130.84 18.94 130.84 19.70L130.84 19.70Q130.84 20.80 129.95 21.40Q129.06 22 127.39 22L127.39 22ZM125.20 18.58L125.20 20.28L127.20 20.28Q128.44 20.28 128.44 19.43L128.44 19.43Q128.44 18.58 127.20 18.58L127.20 18.58L125.20 18.58ZM125.20 15.31L125.20 16.94L126.83 16.94Q128.03 16.94 128.03 16.12L128.03 16.12Q128.03 15.31 126.83 15.31L126.83 15.31L125.20 15.31ZM142.30 22L135.56 22L135.56 13.60L142.15 13.60L142.15 15.44L137.91 15.44L137.91 16.85L141.64 16.85L141.64 18.63L137.91 18.63L137.91 20.17L142.30 20.17L142.30 22ZM156.21 18.95L153.00 13.60L155.51 13.60L157.50 16.94L159.49 13.60L161.80 13.60L158.58 18.99L158.58 22L156.21 22L156.21 18.95ZM165.45 17.80L165.45 17.80Q165.45 16.55 166.05 15.55Q166.66 14.56 167.72 14.00Q168.79 13.43 170.12 13.43L170.12 13.43Q171.45 13.43 172.51 14.00Q173.57 14.56 174.18 15.55Q174.79 16.55 174.79 17.80L174.79 17.80Q174.79 19.05 174.18 20.04Q173.57 21.04 172.51 21.60Q171.45 22.17 170.12 22.17L170.12 22.17Q168.79 22.17 167.72 21.60Q166.66 21.04 166.05 20.04Q165.45 19.05 165.45 17.80ZM167.85 17.80L167.85 17.80Q167.85 18.51 168.15 19.05Q168.45 19.60 168.97 19.90Q169.48 20.20 170.12 20.20L170.12 20.20Q170.75 20.20 171.27 19.90Q171.79 19.60 172.08 19.05Q172.38 18.51 172.38 17.80L172.38 17.80Q172.38 17.09 172.08 16.54Q171.79 16 171.27 15.70Q170.75 15.40 170.12 15.40L170.12 15.40Q169.48 15.40 168.96 15.70Q168.45 16 168.15 16.54Q167.85 17.09 167.85 17.80ZM179.44 18.26L179.44 18.26L179.44 13.60L181.82 13.60L181.82 18.19Q181.82 20.20 183.42 20.20L183.42 20.20Q185.00 20.20 185.00 18.19L185.00 18.19L185.00 13.60L187.34 13.60L187.34 18.26Q187.34 20.13 186.30 21.15Q185.26 22.17 183.39 22.17L183.39 22.17Q181.52 22.17 180.48 21.15Q179.44 20.13 179.44 18.26ZM194.81 22L192.43 22L192.43 13.60L196.27 13.60Q197.41 13.60 198.25 13.98Q199.09 14.35 199.55 15.06Q200.00 15.76 200.00 16.71L200.00 16.71Q200.00 17.62 199.58 18.30Q199.15 18.98 198.36 19.36L198.36 19.36L200.17 22L197.63 22L196.10 19.77L194.81 19.77L194.81 22ZM194.81 15.47L194.81 17.93L196.13 17.93Q196.86 17.93 197.23 17.61Q197.60 17.29 197.60 16.71L197.60 16.71Q197.60 16.12 197.23 15.79Q196.86 15.47 196.13 15.47L196.13 15.47L194.81 15.47ZM204.21 21.24L204.21 21.24L204.98 19.49Q205.55 19.86 206.29 20.09Q207.04 20.32 207.76 20.32L207.76 20.32Q209.12 20.32 209.13 19.64L209.13 19.64Q209.13 19.28 208.74 19.11Q208.35 18.93 207.48 18.74L207.48 18.74Q206.53 18.53 205.90 18.30Q205.26 18.06 204.81 17.55Q204.35 17.03 204.35 16.16L204.35 16.16Q204.35 15.39 204.77 14.77Q205.19 14.15 206.02 13.79Q206.86 13.43 208.07 13.43L208.07 13.43Q208.89 13.43 209.70 13.62Q210.50 13.80 211.12 14.17L211.12 14.17L210.39 15.93Q209.19 15.28 208.05 15.28L208.05 15.28Q207.35 15.28 207.02 15.49Q206.70 15.70 206.70 16.04L206.70 16.04Q206.70 16.37 207.09 16.54Q207.47 16.71 208.32 16.89L208.32 16.89Q209.28 17.10 209.91 17.33Q210.54 17.56 211.00 18.07Q211.47 18.58 211.47 19.46L211.47 19.46Q211.47 20.21 211.05 20.83Q210.63 21.44 209.79 21.80Q208.95 22.17 207.74 22.17L207.74 22.17Q206.72 22.17 205.76 21.92Q204.80 21.67 204.21 21.24ZM222.79 22L216.04 22L216.04 13.60L222.63 13.60L222.63 15.44L218.40 15.44L218.40 16.85L222.13 16.85L222.13 18.63L218.40 18.63L218.40 20.17L222.79 20.17L222.79 22ZM233.98 22L227.59 22L227.59 13.60L229.97 13.60L229.97 20.11L233.98 20.11L233.98 22ZM240.77 22L238.39 22L238.39 13.60L244.99 13.60L244.99 15.44L240.77 15.44L240.77 17.28L244.48 17.28L244.48 19.12L240.77 19.12L240.77 22Z"/>
</svg>