<svg xmlns="http://www.w3.org/2000/svg" width="260" height="35">
    <rect class="svg__rect" fill="#E46C17" x="0" y="0" width="260" height="35"/>
    <path class="svg__text" fill="#FFFFFF" d="M15.70 22L14.22 22L14.22 13.47L17.48 13.47Q18.91 13.47 19.75 14.21Q20.59 14.96 20.59 16.18L20.59 16.18Q20.59 17.44 19.77 18.13Q18.95 18.83 17.46 18.83L17.46 18.83L15.70 18.83L15.70 22ZM15.70 14.66L15.70 17.64L17.48 17.64Q18.27 17.64 18.69 17.27Q19.10 16.90 19.10 16.19L19.10 16.19Q19.10 15.50 18.68 15.09Q18.26 14.68 17.52 14.66L17.52 14.66L15.70 14.66ZM25.65 22L24.11 22L27.34 13.47L28.67 13.47L31.89 22L30.35 22L29.65 20.01L26.35 20.01L25.65 22ZM28.00 15.28L26.76 18.82L29.23 18.82L28.00 15.28ZM35.42 19.42L35.42 19.42L36.90 19.42Q36.90 20.15 37.38 20.55Q37.86 20.95 38.76 20.95L38.76 20.95Q39.53 20.95 39.92 20.63Q40.31 20.32 40.31 19.80L40.31 19.80Q40.31 19.24 39.91 18.94Q39.52 18.63 38.49 18.32Q37.46 18.01 36.85 17.63L36.85 17.63Q35.68 16.90 35.68 15.72L35.68 15.72Q35.68 14.69 36.52 14.02Q37.36 13.35 38.70 13.35L38.70 13.35Q39.59 13.35 40.29 13.68Q40.99 14.01 41.39 14.61Q41.79 15.22 41.79 15.96L41.79 15.96L40.31 15.96Q40.31 15.29 39.89 14.91Q39.47 14.54 38.69 14.54L38.69 14.54Q37.97 14.54 37.56 14.85Q37.16 15.16 37.16 15.71L37.16 15.71Q37.16 16.18 37.60 16.50Q38.03 16.81 39.03 17.10Q40.02 17.40 40.63 17.78Q41.23 18.16 41.51 18.65Q41.79 19.13 41.79 19.79L41.79 19.79Q41.79 20.86 40.97 21.49Q40.16 22.12 38.76 22.12L38.76 22.12Q37.83 22.12 37.05 21.77Q36.28 21.43 35.85 20.83Q35.42 20.22 35.42 19.42ZM45.65 19.42L45.65 19.42L47.13 19.42Q47.13 20.15 47.61 20.55Q48.09 20.95 48.99 20.95L48.99 20.95Q49.76 20.95 50.15 20.63Q50.54 20.32 50.54 19.80L50.54 19.80Q50.54 19.24 50.14 18.94Q49.75 18.63 48.72 18.32Q47.69 18.01 47.08 17.63L47.08 17.63Q45.91 16.90 45.91 15.72L45.91 15.72Q45.91 14.69 46.75 14.02Q47.59 13.35 48.93 13.35L48.93 13.35Q49.82 13.35 50.52 13.68Q51.22 14.01 51.62 14.61Q52.02 15.22 52.02 15.96L52.02 15.96L50.54 15.96Q50.54 15.29 50.12 14.91Q49.70 14.54 48.92 14.54L48.92 14.54Q48.20 14.54 47.79 14.85Q47.39 15.16 47.39 15.71L47.39 15.71Q47.39 16.18 47.83 16.50Q48.26 16.81 49.26 17.10Q50.25 17.40 50.86 17.78Q51.46 18.16 51.74 18.65Q52.02 19.13 52.02 19.79L52.02 19.79Q52.02 20.86 51.20 21.49Q50.39 22.12 48.99 22.12L48.99 22.12Q48.06 22.12 47.28 21.77Q46.51 21.43 46.08 20.83Q45.65 20.22 45.65 19.42ZM57.88 22L56.40 22L56.40 13.47L57.88 13.47L57.88 22ZM62.42 18.00L62.42 18.00L62.42 17.52Q62.42 16.28 62.86 15.32Q63.30 14.37 64.11 13.86Q64.91 13.35 65.96 13.35Q67.00 13.35 67.80 13.85Q68.61 14.35 69.05 15.29Q69.49 16.23 69.49 17.48L69.49 17.48L69.49 17.96Q69.49 19.21 69.06 20.16Q68.63 21.10 67.82 21.61Q67.02 22.12 65.97 22.12L65.97 22.12Q64.93 22.12 64.12 21.61Q63.31 21.10 62.86 20.17Q62.42 19.23 62.42 18.00ZM63.90 17.46L63.90 17.96Q63.90 19.36 64.45 20.13Q64.99 20.90 65.97 20.90L65.97 20.90Q66.95 20.90 67.48 20.15Q68.01 19.40 68.01 17.96L68.01 17.96L68.01 17.51Q68.01 16.09 67.48 15.34Q66.94 14.58 65.96 14.58L65.96 14.58Q64.99 14.58 64.45 15.33Q63.91 16.09 63.90 17.46L63.90 17.46ZM75.44 22L73.96 22L73.96 13.47L75.44 13.47L79.26 19.54L79.26 13.47L80.73 13.47L80.73 22L79.24 22L75.44 15.95L75.44 22ZM86.25 22L84.71 22L87.93 13.47L89.26 13.47L92.49 22L90.94 22L90.24 20.01L86.94 20.01L86.25 22ZM88.59 15.28L87.35 18.82L89.83 18.82L88.59 15.28ZM98.12 14.66L95.49 14.66L95.49 13.47L102.25 13.47L102.25 14.66L99.59 14.66L99.59 22L98.12 22L98.12 14.66ZM111.59 22L106.01 22L106.01 13.47L111.55 13.47L111.55 14.66L107.49 14.66L107.49 17.02L111.00 17.02L111.00 18.19L107.49 18.19L107.49 20.82L111.59 20.82L111.59 22ZM124.22 22L121.76 22L121.76 13.47L124.28 13.47Q125.41 13.47 126.29 13.97Q127.16 14.48 127.64 15.40Q128.12 16.33 128.12 17.52L128.12 17.52L128.12 17.95Q128.12 19.16 127.64 20.08Q127.16 21.00 126.26 21.50Q125.37 22 124.22 22L124.22 22ZM123.24 14.66L123.24 20.82L124.21 20.82Q125.38 20.82 126.00 20.09Q126.62 19.36 126.64 17.99L126.64 17.99L126.64 17.52Q126.64 16.13 126.03 15.40Q125.43 14.66 124.28 14.66L124.28 14.66L123.24 14.66ZM138.17 22L132.59 22L132.59 13.47L138.13 13.47L138.13 14.66L134.07 14.66L134.07 17.02L137.57 17.02L137.57 18.19L134.07 18.19L134.07 20.82L138.17 20.82L138.17 22ZM144.66 22L141.60 13.47L143.22 13.47L145.37 20.14L147.54 13.47L149.16 13.47L146.09 22L144.66 22ZM158.69 22L153.11 22L153.11 13.47L158.65 13.47L158.65 14.66L154.60 14.66L154.60 17.02L158.10 17.02L158.10 18.19L154.60 18.19L154.60 20.82L158.69 20.82L158.69 22ZM168.24 22L162.89 22L162.89 13.47L164.37 13.47L164.37 20.82L168.24 20.82L168.24 22ZM172.10 18.00L172.10 18.00L172.10 17.52Q172.10 16.28 172.54 15.32Q172.98 14.37 173.79 13.86Q174.59 13.35 175.64 13.35Q176.68 13.35 177.49 13.85Q178.29 14.35 178.73 15.29Q179.17 16.23 179.18 17.48L179.18 17.48L179.18 17.96Q179.18 19.21 178.74 20.16Q178.31 21.10 177.50 21.61Q176.70 22.12 175.65 22.12L175.65 22.12Q174.61 22.12 173.80 21.61Q172.99 21.10 172.55 20.17Q172.10 19.23 172.10 18.00ZM173.58 17.46L173.58 17.96Q173.58 19.36 174.13 20.13Q174.68 20.90 175.65 20.90L175.65 20.90Q176.63 20.90 177.16 20.15Q177.69 19.40 177.69 17.96L177.69 17.96L177.69 17.51Q177.69 16.09 177.16 15.34Q176.62 14.58 175.64 14.58L175.64 14.58Q174.68 14.58 174.13 15.33Q173.59 16.09 173.58 17.46L173.58 17.46ZM185.12 22L183.64 22L183.64 13.47L186.90 13.47Q188.33 13.47 189.18 14.21Q190.02 14.96 190.02 16.18L190.02 16.18Q190.02 17.44 189.19 18.13Q188.37 18.83 186.89 18.83L186.89 18.83L185.12 18.83L185.12 22ZM185.12 14.66L185.12 17.64L186.90 17.64Q187.70 17.64 188.11 17.27Q188.53 16.90 188.53 16.19L188.53 16.19Q188.53 15.50 188.11 15.09Q187.68 14.68 186.95 14.66L186.95 14.66L185.12 14.66ZM199.88 22L194.30 22L194.30 13.47L199.84 13.47L199.84 14.66L195.78 14.66L195.78 17.02L199.29 17.02L199.29 18.19L195.78 18.19L195.78 20.82L199.88 20.82L199.88 22ZM205.56 22L204.07 22L204.07 13.47L207.07 13.47Q208.55 13.47 209.35 14.13Q210.15 14.79 210.15 16.05L210.15 16.05Q210.15 16.90 209.74 17.48Q209.33 18.06 208.59 18.37L208.59 18.37L210.51 21.92L210.51 22L208.92 22L207.21 18.71L205.56 18.71L205.56 22ZM205.56 14.66L205.56 17.52L207.08 17.52Q207.83 17.52 208.25 17.15Q208.67 16.77 208.67 16.11L208.67 16.11Q208.67 15.43 208.28 15.05Q207.89 14.68 207.12 14.66L207.12 14.66L205.56 14.66Z"/>
    <rect class="svg__rect" fill="#D35B09" x="222.29" y="0" width="80" height="35"/>
    <path class="svg__heart" fill="#fff" d="M249.52 12.386c-1.89-1.733-4.955-1.733-6.847 0l-1.282 1.178-1.28-1.178c-1.89-1.733-4.95-1.733-6.84 0-2.13 1.95-2.13 5.115 0 7.065l8.127 7.47 8.13-7.463c2.123-1.95 2.123-5.114 0-7.064z"/>
</svg>