<svg xmlns="http://www.w3.org/2000/svg" width="132.57999999999998" height="35" viewBox="0 0 132.57999999999998 35"><rect class="svg__rect" x="0" y="0" width="54.019999999999996" height="35" fill="#31C4F3"/><rect class="svg__rect" x="52.019999999999996" y="0" width="80.56" height="35" fill="#389AD5"/><path class="svg__text" d="M13.78 19.42L13.78 19.42L15.27 19.42Q15.27 20.15 15.75 20.55Q16.23 20.95 17.12 20.95L17.12 20.95Q17.90 20.95 18.29 20.63Q18.68 20.32 18.68 19.80L18.68 19.80Q18.68 19.24 18.28 18.94Q17.89 18.63 16.85 18.32Q15.82 18.01 15.21 17.63L15.21 17.63Q14.05 16.90 14.05 15.72L14.05 15.72Q14.05 14.69 14.89 14.02Q15.73 13.35 17.07 13.35L17.07 13.35Q17.96 13.35 18.66 13.68Q19.36 14.01 19.75 14.61Q20.15 15.22 20.15 15.96L20.15 15.96L18.68 15.96Q18.68 15.29 18.26 14.91Q17.84 14.54 17.06 14.54L17.06 14.54Q16.33 14.54 15.93 14.85Q15.53 15.16 15.53 15.71L15.53 15.71Q15.53 16.18 15.96 16.50Q16.40 16.81 17.39 17.10Q18.39 17.40 18.99 17.78Q19.60 18.16 19.88 18.65Q20.16 19.13 20.16 19.79L20.16 19.79Q20.16 20.86 19.34 21.49Q18.52 22.12 17.12 22.12L17.12 22.12Q16.20 22.12 15.42 21.77Q14.64 21.43 14.21 20.83Q13.78 20.22 13.78 19.42ZM30.03 22L24.45 22L24.45 13.47L29.98 13.47L29.98 14.66L25.93 14.66L25.93 17.02L29.43 17.02L29.43 18.19L25.93 18.19L25.93 20.82L30.03 20.82L30.03 22ZM39.80 22L34.22 22L34.22 13.47L39.76 13.47L39.76 14.66L35.70 14.66L35.70 17.02L39.21 17.02L39.21 18.19L35.70 18.19L35.70 20.82L39.80 20.82L39.80 22Z" fill="#FFFFFF"/><path class="svg__text" d="M68.41 22L66.21 22L66.21 13.60L68.16 13.60L71.12 18.45L74.00 13.60L75.95 13.60L75.98 22L73.80 22L73.77 17.55L71.61 21.17L70.56 21.17L68.41 17.67L68.41 22ZM83.26 18.95L80.06 13.60L82.57 13.60L84.56 16.94L86.55 13.60L88.85 13.60L85.64 18.99L85.64 22L83.26 22L83.26 18.95ZM99.48 17.80L99.48 17.80Q99.48 16.54 100.08 15.54Q100.68 14.55 101.73 13.99Q102.78 13.43 104.10 13.43L104.10 13.43Q105.25 13.43 106.18 13.84Q107.10 14.25 107.72 15.02L107.72 15.02L106.20 16.39Q105.39 15.40 104.22 15.40L104.22 15.40Q103.54 15.40 103.00 15.70Q102.47 16 102.18 16.54Q101.88 17.09 101.88 17.80L101.88 17.80Q101.88 18.51 102.18 19.05Q102.47 19.60 103.00 19.90Q103.54 20.20 104.22 20.20L104.22 20.20Q105.39 20.20 106.20 19.22L106.20 19.22L107.72 20.58Q107.11 21.35 106.18 21.76Q105.25 22.17 104.10 22.17L104.10 22.17Q102.78 22.17 101.73 21.61Q100.68 21.05 100.08 20.05Q99.48 19.06 99.48 17.80ZM114.83 22L111.24 13.60L113.82 13.60L116.09 19.07L118.42 13.60L120.77 13.60L117.17 22L114.83 22Z" fill="#FFFFFF" x="65.02"/></svg>